{"title":"Batman Unlimited Mech vs Mutants 2016 Movies HDRip XviD New ☻rDX","uid":15717172,"size":739353238,"categoryP":"video","categoryS":"movies","magnet":"?xt=urn:btih:5c194c3f1c0ab769965b955408cfbb131e2423a3&amp;dn=Batman+Unlimited+Mech+vs+Mutants+2016+Movies+HDRip+XviD+New+%E2%98%BBrDX&amp;tr=udp%3A%2F%2Ftracker.leechers-paradise.org%3A6969&amp;tr=udp%3A%2F%2Fzer0day.ch%3A1337&amp;tr=udp%3A%2F%2Fopen.demonii.com%3A1337&amp;tr=udp%3A%2F%2Ftracker.coppersurfer.tk%3A6969&amp;tr=udp%3A%2F%2Fexodus.desync.com%3A6969","seeders":1,"leechers":0,"uploader":"basicssom","files":2,"time":1472637353,"description":"----------------------------------------------------------------\r\nBatman Unlimited Mech vs Mutants 2016 Movies HDRip XviD AAC New Source with Sample ☻rDX☻\r\n\r\nSCREEN SHOTS &amp; POSTER:\r\n  \nhttp://postimage.co.nr/2016/9/bike/index.htm  \nhttp://postimage.co.nr/2016/9/bike/1.html  \nhttp://postimage.co.nr/2016/9/bike/2.html  \nhttp://postimage.co.nr/2016/9/bike/3.html  \nhttp://postimage.co.nr/2016/9/bike/4.html  \nhttp://postimage.co.nr/2016/9/bike/5.html  \nhttp://postimage.co.nr/2016/9/bike/6.html  \nhttp://postimage.co.nr/2016/9/bike/7.html  \nhttp://postimage.co.nr/2016/9/bike/8.html  \nhttp://postimage.co.nr/2016/9/bike/9.html  \nhttp://postimage.co.nr/2016/9/bike/10.html\r\n\r\nFormat                                   : Matroska\r\nFormat version                           : Version 4 / Version 2\r\nFile size                                : 698 MiB\r\nDuration                                 : 1 h 15 min\r\nOverall bit rate mode                    : Constant\r\nOverall bit rate                         : 1 298 kb/s\r\nMovie name                               : Batman Unlimited Mech vs Mutants 2016 Movies HDRip XviD AAC New Source ☻rDX☻\r\n\r\nVideo\r\nID                                       : 2\r\nFormat                                   : AVC\r\nFormat/Info                              : Advanced Video Codec\r\nFormat profile                           :   \r\nFormat settings, CABAC                   : Yes\r\nFormat settings, ReFrames                : 2 frames\r\nFormat settings, GOP                     : M=1, N=12\r\nCodec ID                                 : V_MPEG4/ISO/AVC\r\nDuration                                 : 1 h 15 min\r\nBit rate mode                            : Constant\r\nBit rate                                 : 915 kb/s\r\nWidth                                    : 720 pixels\r\nHeight                                   : 400 pixels\r\nDisplay aspect ratio                     : 16:9\r\nFrame rate mode                          : Constant\r\nFrame rate                               : 23.976 (23976/1000) FPS\r\nColor space                              : YUV\r\nChroma subsampling                       : 4:2:0\r\nBit depth                                : 8 bits\r\nScan type                                : Progressive\r\nBits/(Pixel*Frame)                       : 0.133\r\nStream size                              : 478 MiB (68%)\r\nTitle                                    : ☻rDX☻\r\nDefault                                  : Yes\r\nForced                                   : No\r\n\r\nAudio\r\nID                                       : 1\r\nFormat                                   : AC-3\r\nFormat/Info                              : Audio Coding 3\r\nMode extension                           : CM (complete main)\r\nFormat settings, Endianness              : Big\r\nCodec ID                                 : A_AC3\r\nDuration                                 : 1 h 15 min\r\nBit rate mode                            : Constant\r\nBit rate                                 : 384 kb/s\r\nChannel(s)                               : 6 channels\r\nChannel positions                        : Front: L C R, Side: L R, LFE\r\nSampling rate                            : 48.0 kHz\r\nFrame rate                               : 31.250 FPS (1536 spf)\r\nCompression mode                         : Lossy\r\nStream size                              : 207 MiB (30%)\r\nTitle                                    : ☻rDX☻\r\nDefault                                  : Yes\r\nForced                                   : No\r\n\r\nIMDB \nhttp://www.imdb.com/title/tt5896146/","torrent":{"xt":"urn:btih:5c194c3f1c0ab769965b955408cfbb131e2423a3","amp;dn":"Batman+Unlimited+Mech+vs+Mutants+2016+Movies+HDRip+XviD+New+%E2%98%BBrDX","amp;tr":["udp%3A%2F%2Ftracker.leechers-paradise.org%3A6969","udp%3A%2F%2Fzer0day.ch%3A1337","udp%3A%2F%2Fopen.demonii.com%3A1337","udp%3A%2F%2Ftracker.coppersurfer.tk%3A6969","udp%3A%2F%2Fexodus.desync.com%3A6969"],"infoHash":"5c194c3f1c0ab769965b955408cfbb131e2423a3","infoHashBuffer":{"type":"Buffer","data":[92,25,76,63,28,10,183,105,150,91,149,84,8,207,187,19,30,36,35,163]},"announce":[],"urlList":[]}}